<svg width="42" height="42" viewBox="0 0 42 42" fill="none" xmlns="http://www.w3.org/2000/svg">
<path d="M21 36C15.7917 36 11.1875 33.3334 8.50002 29.3334C8.56252 25.1667 16.8334 22.875 21 22.875C25.1667 22.875 33.4375 25.1667 33.5 29.3334C32.1227 31.3842 30.2622 33.0649 28.0824 34.2275C25.9027 35.39 23.4704 35.9987 21 36ZM21 6.41669C22.6576 6.41669 24.2473 7.07517 25.4194 8.24727C26.5915 9.41937 27.25 11.0091 27.25 12.6667C27.25 14.3243 26.5915 15.914 25.4194 17.0861C24.2473 18.2582 22.6576 18.9167 21 18.9167C19.3424 18.9167 17.7527 18.2582 16.5806 17.0861C15.4085 15.914 14.75 14.3243 14.75 12.6667C14.75 11.0091 15.4085 9.41937 16.5806 8.24727C17.7527 7.07517 19.3424 6.41669 21 6.41669ZM21 0.166687C18.2641 0.166687 15.5551 0.705557 13.0274 1.75253C10.4998 2.7995 8.20318 4.33408 6.26863 6.26863C2.36162 10.1756 0.166687 15.4747 0.166687 21C0.166687 26.5254 2.36162 31.8244 6.26863 35.7314C8.20318 37.666 10.4998 39.2005 13.0274 40.2475C15.5551 41.2945 18.2641 41.8334 21 41.8334C26.5254 41.8334 31.8244 39.6384 35.7314 35.7314C39.6384 31.8244 41.8334 26.5254 41.8334 21C41.8334 9.47919 32.4584 0.166687 21 0.166687Z" fill="#F1F5F9"/>
</svg>
