<svg width="600" height="200" viewBox="0 0 600 200" fill="none" xmlns="http://www.w3.org/2000/svg">
<rect x="1.5" y="1.5" width="597" height="197" rx="16.5" fill="#1E293B" stroke="#C9D3E3" stroke-width="3"/>
<circle cx="47.5" cy="52.5" r="33.5" fill="#C9D3E3"/>
<rect x="102" y="32" width="147" height="9" rx="3" fill="#C9D3E3"/>
<rect x="102" y="51" width="113" height="9" rx="3" fill="#C9D3E3"/>
<rect x="101" y="84" width="480" height="9" rx="3" fill="#C9D3E3" fill-opacity="0.45"/>
<rect x="101" y="100" width="480" height="9" rx="3" fill="#C9D3E3" fill-opacity="0.45"/>
<rect x="101" y="116" width="420" height="9" rx="3" fill="#C9D3E3" fill-opacity="0.45"/>
<rect x="101" y="132" width="100" height="9" rx="3" fill="#059FFF" fill-opacity="0.63"/>
<rect x="208" y="132" width="100" height="9" rx="3" fill="#059FFF" fill-opacity="0.63"/>
<path d="M113.995 175.308C111.644 173.174 109.708 171.414 108.354 169.83C106.985 168.229 106.25 166.853 106.25 165.5C106.25 163.638 107.638 162.25 109.5 162.25C110.943 162.25 112.347 163.192 112.837 164.451L112.899 164.61H113.07H114.93H115.101L115.163 164.451C115.653 163.192 117.057 162.25 118.5 162.25C120.362 162.25 121.75 163.638 121.75 165.5C121.75 166.853 121.015 168.229 119.645 169.83C118.29 171.414 116.351 173.174 113.995 175.308ZM113.832 178.535L114 178.688L114.168 178.535L115.618 177.215C115.618 177.215 115.618 177.215 115.618 177.215C118.188 174.884 120.342 172.931 121.85 171.086C123.361 169.237 124.25 167.467 124.25 165.5C124.25 162.272 121.718 159.75 118.5 159.75C116.783 159.75 115.135 160.505 114 161.706C112.865 160.505 111.217 159.75 109.5 159.75C106.282 159.75 103.75 162.272 103.75 165.5C103.75 167.467 104.639 169.237 106.15 171.086C107.658 172.931 109.812 174.884 112.382 177.215C112.382 177.215 112.382 177.215 112.382 177.215L113.832 178.535Z" fill="#6A7686" stroke="#6A7686" stroke-width="0.5"/>
</svg>
