<svg width="38" height="38" viewBox="0 0 38 38" fill="none" xmlns="http://www.w3.org/2000/svg">
<path d="M8.58334 29.4167H29.4167C29.8333 29.4167 30.1458 29.2257 30.3542 28.8438C30.5625 28.4618 30.5278 28.0972 30.25 27.75L24.5208 20.0938C24.3125 19.816 24.0347 19.6771 23.6875 19.6771C23.3403 19.6771 23.0625 19.816 22.8542 20.0938L17.4375 27.3333L13.5833 22.1771C13.375 21.8993 13.0972 21.7604 12.75 21.7604C12.4028 21.7604 12.125 21.8993 11.9167 22.1771L7.75 27.75C7.47223 28.0972 7.4375 28.4618 7.64584 28.8438C7.85417 29.2257 8.16667 29.4167 8.58334 29.4167ZM4.41667 37.75C3.27084 37.75 2.28959 37.3424 1.47292 36.5271C0.656253 35.7118 0.248615 34.7306 0.250004 33.5833V4.41667C0.250004 3.27084 0.658337 2.28959 1.475 1.47292C2.29167 0.656253 3.27223 0.248615 4.41667 0.250004H33.5833C34.7292 0.250004 35.7104 0.658336 36.5271 1.475C37.3438 2.29167 37.7514 3.27223 37.75 4.41667V33.5833C37.75 34.7292 37.3417 35.7104 36.525 36.5271C35.7083 37.3438 34.7278 37.7514 33.5833 37.75H4.41667Z" fill="#C9D3E3"/>
</svg>
